<svg width="162" height="74" viewBox="0 0 162 74" fill="none" xmlns="http://www.w3.org/2000/svg">
<g opacity="0.5">
<circle cx="157.996" cy="4.11793" r="3.65467" transform="rotate(90 157.996 4.11793)" fill="#333333" fill-opacity="0.5"/>
<circle cx="136.068" cy="4.11793" r="3.65467" transform="rotate(90 136.068 4.11793)" fill="#333333" fill-opacity="0.5"/>
<circle cx="114.14" cy="4.11793" r="3.65467" transform="rotate(90 114.14 4.11793)" fill="#333333" fill-opacity="0.5"/>
<circle cx="92.2124" cy="4.11793" r="3.65467" transform="rotate(90 92.2124 4.11793)" fill="#333333" fill-opacity="0.5"/>
<circle cx="70.2844" cy="4.11793" r="3.65467" transform="rotate(90 70.2844 4.11793)" fill="#333333" fill-opacity="0.5"/>
<circle cx="48.3564" cy="4.11793" r="3.65467" transform="rotate(90 48.3564 4.11793)" fill="#333333" fill-opacity="0.5"/>
<circle cx="26.4283" cy="4.11793" r="3.65467" transform="rotate(90 26.4283 4.11793)" fill="#333333" fill-opacity="0.5"/>
<circle cx="4.50036" cy="4.11793" r="3.65467" transform="rotate(90 4.50036 4.11793)" fill="#333333" fill-opacity="0.5"/>
<circle cx="157.997" cy="26.0459" r="3.65467" transform="rotate(90 157.997 26.0459)" fill="#333333" fill-opacity="0.5"/>
<circle cx="136.069" cy="26.0459" r="3.65467" transform="rotate(90 136.069 26.0459)" fill="#333333" fill-opacity="0.5"/>
<circle cx="114.14" cy="26.0459" r="3.65467" transform="rotate(90 114.14 26.0459)" fill="#333333" fill-opacity="0.5"/>
<circle cx="92.2126" cy="26.0459" r="3.65467" transform="rotate(90 92.2126 26.0459)" fill="#333333" fill-opacity="0.5"/>
<circle cx="70.2847" cy="26.0459" r="3.65467" transform="rotate(90 70.2847 26.0459)" fill="#333333" fill-opacity="0.5"/>
<circle cx="48.3566" cy="26.0459" r="3.65467" transform="rotate(90 48.3566 26.0459)" fill="#333333" fill-opacity="0.5"/>
<circle cx="26.4286" cy="26.0459" r="3.65467" transform="rotate(90 26.4286 26.0459)" fill="#333333" fill-opacity="0.5"/>
<circle cx="4.5006" cy="26.0459" r="3.65467" transform="rotate(90 4.5006 26.0459)" fill="#333333" fill-opacity="0.5"/>
<circle cx="157.997" cy="47.974" r="3.65467" transform="rotate(90 157.997 47.974)" fill="#333333" fill-opacity="0.5"/>
<circle cx="136.069" cy="47.974" r="3.65467" transform="rotate(90 136.069 47.974)" fill="#333333" fill-opacity="0.5"/>
<circle cx="114.14" cy="47.974" r="3.65467" transform="rotate(90 114.14 47.974)" fill="#333333" fill-opacity="0.5"/>
<circle cx="92.2126" cy="47.974" r="3.65467" transform="rotate(90 92.2126 47.974)" fill="#333333" fill-opacity="0.5"/>
<circle cx="70.2847" cy="47.974" r="3.65467" transform="rotate(90 70.2847 47.974)" fill="#333333" fill-opacity="0.5"/>
<circle cx="48.3566" cy="47.974" r="3.65467" transform="rotate(90 48.3566 47.974)" fill="#333333" fill-opacity="0.5"/>
<circle cx="26.4286" cy="47.974" r="3.65467" transform="rotate(90 26.4286 47.974)" fill="#333333" fill-opacity="0.5"/>
<circle cx="4.5006" cy="47.974" r="3.65467" transform="rotate(90 4.5006 47.974)" fill="#333333" fill-opacity="0.5"/>
<circle cx="157.997" cy="69.902" r="3.65467" transform="rotate(90 157.997 69.902)" fill="#333333" fill-opacity="0.5"/>
<circle cx="136.069" cy="69.902" r="3.65467" transform="rotate(90 136.069 69.902)" fill="#333333" fill-opacity="0.5"/>
<circle cx="114.14" cy="69.902" r="3.65467" transform="rotate(90 114.14 69.902)" fill="#333333" fill-opacity="0.5"/>
<circle cx="92.2126" cy="69.902" r="3.65467" transform="rotate(90 92.2126 69.902)" fill="#333333" fill-opacity="0.5"/>
<circle cx="70.2847" cy="69.902" r="3.65467" transform="rotate(90 70.2847 69.902)" fill="#333333" fill-opacity="0.5"/>
<circle cx="48.3566" cy="69.902" r="3.65467" transform="rotate(90 48.3566 69.902)" fill="#333333" fill-opacity="0.5"/>
<circle cx="26.4286" cy="69.902" r="3.65467" transform="rotate(90 26.4286 69.902)" fill="#333333" fill-opacity="0.5"/>
<circle cx="4.5006" cy="69.902" r="3.65467" transform="rotate(90 4.5006 69.902)" fill="#333333" fill-opacity="0.5"/>
</g>
</svg>
