<svg width="74" height="162" viewBox="0 0 74 162" fill="none" xmlns="http://www.w3.org/2000/svg">
<g opacity="0.5">
<circle cx="3.69214" cy="4.14185" r="3.65467" fill="#333333" fill-opacity="0.5"/>
<circle cx="3.69214" cy="26.0698" r="3.65467" fill="#333333" fill-opacity="0.5"/>
<circle cx="3.69214" cy="47.9979" r="3.65467" fill="#333333" fill-opacity="0.5"/>
<circle cx="3.69214" cy="69.9259" r="3.65467" fill="#333333" fill-opacity="0.5"/>
<circle cx="3.69214" cy="91.8539" r="3.65467" fill="#333333" fill-opacity="0.5"/>
<circle cx="3.69214" cy="113.782" r="3.65467" fill="#333333" fill-opacity="0.5"/>
<circle cx="3.69214" cy="135.71" r="3.65467" fill="#333333" fill-opacity="0.5"/>
<circle cx="3.69214" cy="157.638" r="3.65467" fill="#333333" fill-opacity="0.5"/>
<circle cx="25.6203" cy="4.14185" r="3.65467" fill="#333333" fill-opacity="0.5"/>
<circle cx="25.6203" cy="26.0698" r="3.65467" fill="#333333" fill-opacity="0.5"/>
<circle cx="25.6203" cy="47.9979" r="3.65467" fill="#333333" fill-opacity="0.5"/>
<circle cx="25.6203" cy="69.9259" r="3.65467" fill="#333333" fill-opacity="0.5"/>
<circle cx="25.6203" cy="91.8539" r="3.65467" fill="#333333" fill-opacity="0.5"/>
<circle cx="25.6203" cy="113.782" r="3.65467" fill="#333333" fill-opacity="0.5"/>
<circle cx="25.6203" cy="135.71" r="3.65467" fill="#333333" fill-opacity="0.5"/>
<circle cx="25.6203" cy="157.638" r="3.65467" fill="#333333" fill-opacity="0.5"/>
<circle cx="47.5482" cy="4.14185" r="3.65467" fill="#333333" fill-opacity="0.5"/>
<circle cx="47.5482" cy="26.0698" r="3.65467" fill="#333333" fill-opacity="0.5"/>
<circle cx="47.5482" cy="47.9979" r="3.65467" fill="#333333" fill-opacity="0.5"/>
<circle cx="47.5482" cy="69.9259" r="3.65467" fill="#333333" fill-opacity="0.5"/>
<circle cx="47.5482" cy="91.8539" r="3.65467" fill="#333333" fill-opacity="0.5"/>
<circle cx="47.5482" cy="113.782" r="3.65467" fill="#333333" fill-opacity="0.5"/>
<circle cx="47.5482" cy="135.71" r="3.65467" fill="#333333" fill-opacity="0.5"/>
<circle cx="47.5482" cy="157.638" r="3.65467" fill="#333333" fill-opacity="0.5"/>
<circle cx="69.4762" cy="4.14185" r="3.65467" fill="#333333" fill-opacity="0.5"/>
<circle cx="69.4762" cy="26.0698" r="3.65467" fill="#333333" fill-opacity="0.5"/>
<circle cx="69.4762" cy="47.9979" r="3.65467" fill="#333333" fill-opacity="0.5"/>
<circle cx="69.4762" cy="69.9259" r="3.65467" fill="#333333" fill-opacity="0.5"/>
<circle cx="69.4762" cy="91.8539" r="3.65467" fill="#333333" fill-opacity="0.5"/>
<circle cx="69.4762" cy="113.782" r="3.65467" fill="#333333" fill-opacity="0.5"/>
<circle cx="69.4762" cy="135.71" r="3.65467" fill="#333333" fill-opacity="0.5"/>
<circle cx="69.4762" cy="157.638" r="3.65467" fill="#333333" fill-opacity="0.5"/>
</g>
</svg>
