<svg width="33" height="33" viewBox="0 0 33 33" fill="none" xmlns="http://www.w3.org/2000/svg">
<path d="M31.0964 14.1702C31.0964 13.463 30.8154 12.7847 30.3153 12.2846C29.8153 11.7845 29.137 11.5036 28.4297 11.5036H20.0031L21.2831 5.41023C21.3097 5.27689 21.3231 5.13023 21.3231 4.98356C21.3231 4.43689 21.0964 3.93023 20.7364 3.57023L19.3231 2.17023L10.5497 10.9436C10.0564 11.4369 9.76306 12.1036 9.76306 12.8369V26.1702C9.76306 26.8775 10.044 27.5557 10.5441 28.0558C11.0442 28.5559 11.7225 28.8369 12.4297 28.8369H24.4297C25.5364 28.8369 26.4831 28.1702 26.8831 27.2102L30.9097 17.8102C31.0297 17.5036 31.0964 17.1836 31.0964 16.8369V14.1702ZM1.76306 28.8369H7.0964V12.8369H1.76306V28.8369Z" fill="#FFAD08"/>
</svg>
