<svg width="33" height="33" viewBox="0 0 33 33" fill="none" xmlns="http://www.w3.org/2000/svg">
<path d="M26.7826 28.7643C24.0048 28.7643 21.255 28.1643 18.5333 26.9643C15.8115 25.7643 13.339 24.0532 11.1159 21.8309C8.89281 19.6087 7.1817 17.1421 5.98259 14.4309C4.78348 11.7198 4.18348 8.96428 4.18259 6.16428V4.76428H12.0493L13.2826 11.4643L9.48259 15.2976C9.97148 16.1643 10.5159 16.9865 11.1159 17.7643C11.7159 18.5421 12.3604 19.2643 13.0493 19.9309C13.6937 20.5754 14.3995 21.1923 15.1666 21.7816C15.9337 22.3709 16.7613 22.9207 17.6493 23.431L21.5159 19.5643L28.1826 20.931V28.7643H26.7826Z" fill="#FFAD08"/>
</svg>
